# xmcd
#
# Track frame offsets:
#	150
#	24182
#	48645
#	75834
#	92179
#	105855
#	131091
#	146560
#	158567
#	174347
#	190831
#	202365
#	220519
#	232760
#	260923
#	279766
#	294980
#	310652
#	331130
#
# Disc length: 4796 seconds
#
# Revision: 0
# Processed by: cddbd v1.5.2PL0 Copyright (c) Steve Scherf et al.
# Submitted via: EasyCDDAExtractor 8.2.3.1
#
DISCID=f812ba13
DTITLE=Various Artist - GOOD WHISKEY BLUES  bottle 4   79'54''
DYEAR=2002
DGENRE=Blues
TTITLE0=C.C.CARR and The CATCH - Woman's Lookin' for a Man
TTITLE1=BACKTRACK BLUES BAND - Boogie Snack
TTITLE2=SMOKEHOUSE - Cadillac in the Swamp
TTITLE3=MIDNIGHT CREEPERS - Luberta
TTITLE4=SMOKEHOUSE - Peepin' Through the Knothole
TTITLE5=PAT RAMSEY - King of Fools
TTITLE6=STAN RUFFO - Take Away My Breath
TTITLE7=STEVE BASSETT - Poor Oi Me
TTITLE8=WAYNE ''BEAR'' SAULS - Special Kind of Mambo
TTITLE9=PAT RAMSEY - Allergic to Work
TTITLE10=BILL WHARTON - Swamp Boogie
TTITLE11=Dr.HECTOR - Ricky Business
TTITLE12=CHIP VANDIVER - Head on Collision
TTITLE13=SON PHILLIPS - April Fool
TTITLE14=RICHARD WATERS and LARRY BURTON - Please Set a Date
TTITLE15=CHICK FRENCH - Low Down and Dirty
TTITLE16=BIG DAWGS - One More Train
TTITLE17=STEVE BASSET - Jesus Just Left Chicago
TTITLE18=BLUES COMPANY - Blues is a Feeling
EXTD=
EXTT0=
EXTT1=
EXTT2=
EXTT3=
EXTT4=
EXTT5=
EXTT6=
EXTT7=
EXTT8=
EXTT9=
EXTT10=
EXTT11=
EXTT12=
EXTT13=
EXTT14=
EXTT15=
EXTT16=
EXTT17=
EXTT18=
PLAYORDER=
